<svg width="179" height="16" fill="none" xmlns="http://www.w3.org/2000/svg"><path d="M8.486 12.626h-4.63L3.11 14.31H0L6.168 1.604l6.173 12.704h-3.11l-.745-1.682zm-1.021-2.3L6.168 7.388l-1.296 2.94h2.593zm8.069-2.367c0-3.52 3.014-6.35 6.768-6.35 1.849 0 3.547.704 4.892 2.02l-1.96 1.852c-.793-.809-1.78-1.239-2.932-1.239-2.235 0-3.981 1.637-3.981 3.717s1.751 3.716 3.967 3.716c.808 0 1.553-.214 2.201-.626V9.257h-2.525V6.656h5.133v5.874c-1.394 1.134-2.995 1.774-4.775 1.774-3.774.005-6.788-2.83-6.788-6.345zm24.378 4.667h-4.63l-.745 1.683h-3.11l6.168-12.705 6.168 12.704h-3.11l-.74-1.682zm-1.02-2.3l-1.297-2.939-1.297 2.94h2.593zM48.19 1.76h2.752v12.393H48.19V1.76zm11.078 5.783v6.61h-2.752v-12.7l7.498 6.95V1.76h2.753v12.7l-7.499-6.917zM86.336 0h3.029l-6.996 15.913h-3.028L86.336 0zm15.829 1.76h8.423v2.601h-5.665v2.295h5.022v2.601h-5.022v4.896h-2.753V1.76h-.005zm20.102 10.866h-4.63l-.745 1.683h-3.111l6.168-12.7 6.169 12.7h-3.111l-.74-1.683zm-1.021-2.3l-1.297-2.939-1.296 2.94h2.593zm7.89.801l2.545-1.088c.116 1.024.856 1.682 1.829 1.682.89 0 1.504-.553 1.504-1.362 0-2.02-5.147-1.408-5.147-5.326 0-2.007 1.553-3.429 3.725-3.429 1.717 0 3.14.933 3.677 2.373l-2.395 1.01c-.193-.535-.648-.9-1.229-.9-.629 0-1.035.365-1.035.887 0 1.728 5.167 1.302 5.167 5.417 0 2.28-1.766 3.918-4.195 3.918-2.148 0-3.991-1.303-4.446-3.182zm15.569-6.766h-3.208V1.76h9.148v2.601h-3.188v9.792h-2.752V4.361zm10.672-2.601h8.422v2.601h-5.665v2.295h5.022v2.601h-5.022v2.295h5.665v2.601h-8.422V1.76zm20.246 12.393l-2.559-4.361h-1.345v4.361h-2.753V1.76h4.974c2.414 0 4.242 1.714 4.242 4.01 0 1.636-.904 2.966-2.298 3.61l2.932 4.773h-3.193zm-3.899-6.962h2.22c.905 0 1.491-.553 1.491-1.422 0-.855-.581-1.408-1.491-1.408h-2.22v2.83z" fill="#000"/></svg>